<?xml version="1.0" encoding="UTF-8"?>
<svg version="1.1" xmlns="http://www.w3.org/2000/svg" width="2500" height="2500">
<path d="M0 0 C1.72920581 -0.0020933 3.45841074 -0.00506096 5.18761376 -0.00880873 C9.89574478 -0.01652198 14.60379262 -0.01197681 19.31192213 -0.00525283 C24.4506682 -0.00014441 29.58940227 -0.00671303 34.72814661 -0.01173949 C43.72019297 -0.01894015 52.71221529 -0.01875775 61.70426273 -0.01364517 C75.07607856 -0.00606316 88.44787421 -0.00995654 101.81968991 -0.01606179 C124.32223001 -0.02597265 146.82475969 -0.02635725 169.32730007 -0.02090836 C170.01148407 -0.02074276 170.69566806 -0.02057717 171.40058491 -0.02040657 C172.4285205 -0.02015778 172.4285205 -0.02015778 173.47722247 -0.01990396 C194.38096067 -0.01485143 215.28469497 -0.01355767 236.18843365 -0.01594925 C237.58991825 -0.01610421 238.99140285 -0.01625852 240.39288745 -0.01641219 C246.02532021 -0.01703316 251.65775296 -0.0176705 257.29018571 -0.01833172 C273.03386607 -0.02016546 288.77754643 -0.02130686 304.52122688 -0.02190399 C305.23807502 -0.02193128 305.95492315 -0.02195857 306.69349396 -0.02198669 C329.52515288 -0.02280488 352.35681044 -0.02055337 375.18846893 -0.01620483 C375.92866444 -0.01606434 376.66885994 -0.01592384 377.43148561 -0.01577908 C389.45068299 -0.01348937 401.46988034 -0.01105036 413.48907769 -0.00859874 C461.15178525 0.00111292 508.81448156 0.00066312 556.47718906 -0.00905991 C568.48923046 -0.01150243 580.50127186 -0.01392459 592.51331329 -0.01620483 C593.25300903 -0.01634573 593.99270477 -0.01648663 594.75481553 -0.01663179 C617.56244579 -0.02094634 640.37007511 -0.0227723 663.17770576 -0.02190399 C663.89403653 -0.02187682 664.61036729 -0.02184965 665.34840504 -0.02182166 C681.07540521 -0.02119661 696.80240528 -0.01992915 712.52940535 -0.01808299 C718.15702438 -0.01742475 723.78464341 -0.01679858 729.41226245 -0.01618156 C730.81217901 -0.01602679 732.21209558 -0.01586933 733.61201214 -0.01570917 C754.50770856 -0.01332521 775.40340058 -0.01534862 796.29909645 -0.02040657 C796.98319765 -0.02057216 797.66729885 -0.02073775 798.37213039 -0.02090836 C799.05496131 -0.02107372 799.73779223 -0.02123909 800.441315 -0.02140946 C823.50723668 -0.02693436 846.57314733 -0.0248758 869.6390683 -0.01434687 C882.92770368 -0.00848078 896.21631226 -0.0080816 909.50494694 -0.01563922 C918.38887507 -0.02013374 927.27278178 -0.01731523 936.15670675 -0.00862968 C941.2132386 -0.00388671 946.26971732 -0.00221492 951.32624745 -0.00944164 C989.7702129 -0.06040463 989.7702129 -0.06040463 1006.91786289 2.25168228 C1008.06116233 2.40044807 1009.20446177 2.54921386 1010.38240665 2.70248771 C1034.62221273 6.00765406 1057.54737416 13.53959832 1079.91786289 23.25168228 C1080.82487949 23.64194595 1081.7318961 24.03220963 1082.66639805 24.43429947 C1107.92863557 35.44544636 1130.36987925 51.00944837 1150.91786289 69.25168228 C1151.44251133 69.71477798 1151.96715977 70.17787369 1152.50770664 70.65500259 C1165.97827582 82.61593902 1178.51637514 95.51624129 1188.91786289 110.25168228 C1189.53145664 111.05734634 1190.14505039 111.86301041 1190.77723789 112.69308853 C1233.24583885 168.7621712 1244.28182464 234.81133087 1244.16859664 303.26752747 C1244.16256001 308.27960539 1244.16827409 313.29167327 1244.17241746 318.30375123 C1244.17807398 327.06716883 1244.17638011 335.83056042 1244.16973209 344.59397697 C1244.15987356 357.62570496 1244.16155733 370.65741409 1244.16548239 383.6891443 C1244.17174471 405.62100229 1244.16862269 427.5528502 1244.15988827 449.48470688 C1244.15125504 471.20185571 1244.14635692 492.91899973 1244.1465559 514.63615036 C1244.14656382 516.00249506 1244.14657155 517.36883976 1244.14657907 518.73518446 C1244.14661645 524.2265095 1244.14668287 529.71783454 1244.14678488 535.20915958 C1244.14706244 550.55738052 1244.14667395 565.90560141 1244.14579582 581.25382233 C1244.14575615 581.95261278 1244.14571648 582.65140324 1244.1456756 583.37136917 C1244.14436857 605.62219368 1244.14020066 627.87301668 1244.13393784 650.12384033 C1244.1337349 650.84503762 1244.13353196 651.56623491 1244.13332287 652.30928666 C1244.1300145 664.01962541 1244.12651902 675.72996411 1244.12301415 687.4403028 C1244.1091235 733.88931193 1244.10248122 780.3383156 1244.10316563 826.78732681 C1244.10318602 828.25587514 1244.10320623 829.72442347 1244.10322627 831.19297179 C1244.10326645 834.1266268 1244.10330722 837.0602818 1244.10334837 839.99393681 C1244.1034398 846.57229142 1244.10352415 853.15064602 1244.10359496 859.72900063 C1244.10361073 861.18611145 1244.10362717 862.64322226 1244.10364429 864.10033308 C1244.10408989 903.05446826 1244.09961896 942.0086027 1244.09329206 980.96273732 C1244.09318189 981.64308564 1244.09307171 982.32343397 1244.09295821 983.02439891 C1244.09095296 995.40448108 1244.09095296 995.40448108 1244.08993361 1001.49108288 C1244.08744075 1016.43591514 1244.08549742 1031.38074716 1244.08511996 1046.32557964 C1244.08510243 1046.99807327 1244.0850849 1047.67056689 1244.08506684 1048.36343911 C1244.08499764 1051.07342227 1244.08493239 1053.78340543 1244.08486936 1056.49338859 C1244.0842826 1081.66565996 1244.08049146 1106.83792748 1244.07039066 1132.01019707 C1244.06528405 1144.95912273 1244.0628635 1157.90804207 1244.06438685 1170.85696868 C1244.06512317 1179.51303711 1244.06220353 1188.1690994 1244.05634304 1196.82516586 C1244.05310457 1201.75229336 1244.05139273 1206.67940764 1244.05410364 1211.60653576 C1244.09304353 1290.26636365 1228.9337331 1362.97192351 1174.91786289 1423.25168228 C1174.4499332 1423.77520279 1173.98200352 1424.2987233 1173.49989414 1424.83810806 C1122.15813284 1481.9330327 1052.43094526 1513.07267447 976.12272602 1517.15382471 C969.69307138 1517.43918954 963.2560851 1517.38942592 956.82157803 1517.38031673 C955.15092149 1517.38166669 953.48026526 1517.38345244 951.80960959 1517.38562897 C947.24535229 1517.39032277 942.68111513 1517.38886914 938.11685689 1517.3863512 C933.14087169 1517.38470945 928.16489064 1517.38886614 923.18890679 1517.39226037 C914.47616032 1517.39740192 905.76341941 1517.39883374 897.05067158 1517.39780426 C884.09361933 1517.39627704 871.13657322 1517.4004462 858.17952217 1517.40567889 C833.6872846 1517.41534382 809.19504875 1517.41816346 784.70280956 1517.41873594 C782.00339666 1517.4188007 779.30398376 1517.41886863 776.60457087 1517.41893935 C775.93464513 1517.41895636 775.26471939 1517.41897336 774.57449288 1517.41899088 C759.70854032 1517.41939988 744.84258818 1517.42159156 729.97663584 1517.4240952 C723.84924346 1517.42512361 717.72185108 1517.42611366 711.5944587 1517.42711145 C710.91736221 1517.42722204 710.24026573 1517.42733263 709.54265117 1517.42744657 C670.75397913 1517.43376854 631.96530737 1517.43789592 593.17663479 1517.43743801 C591.72583369 1517.43742223 590.2750326 1517.4374065 588.82423151 1517.4373908 C582.27447287 1517.43731742 575.72471424 1517.43722925 569.17495561 1517.43713692 C566.25445746 1517.4370958 563.33395931 1517.43705565 560.41346116 1517.43701561 C558.95170056 1517.43699521 557.48993996 1517.43697419 556.02817936 1517.43695255 C509.83206148 1517.43627269 463.63595128 1517.44358373 417.43983555 1517.45749283 C405.80465732 1517.46099416 394.16947909 1517.46446376 382.5343008 1517.46775723 C381.45950697 1517.46806154 381.45950697 1517.46806154 380.36300014 1517.46837199 C358.25772275 1517.4745928 336.152446 1517.47835369 314.04716778 1517.47961521 C313.00520866 1517.47967514 313.00520866 1517.47967514 311.94219986 1517.47973627 C296.68861039 1517.4805898 281.43502097 1517.48085066 266.18143149 1517.4805659 C260.72249206 1517.48046942 255.26355263 1517.48041737 249.8046132 1517.48038717 C248.4466855 1517.48037925 247.08875781 1517.48036905 245.73083011 1517.48035655 C224.14671144 1517.48018065 202.56259935 1517.48586079 180.97848256 1517.49451036 C158.61275737 1517.50342754 136.2470425 1517.50496199 113.88131641 1517.49819823 C101.00562269 1517.49451395 88.12995781 1517.49630127 75.25426717 1517.50614057 C66.63396707 1517.51216888 58.01368771 1517.51081365 49.39338854 1517.50367008 C44.49473828 1517.49981244 39.59614355 1517.49894298 34.69749735 1517.50712743 C-45.65642221 1517.63231079 -123.20617928 1502.68934869 -183.29698086 1444.91965103 C-185.91592138 1442.41090436 -188.60299139 1440.01416395 -191.33213711 1437.62668228 C-196.30773133 1433.15667263 -200.72632979 1428.32094079 -205.08213711 1423.25168228 C-206.23455898 1421.93103775 -206.23455898 1421.93103775 -207.41026211 1420.58371353 C-250.85478692 1369.78164823 -273.29266838 1306.40993226 -273.21356487 1239.82719231 C-273.21521843 1238.10843611 -273.21730647 1236.38968029 -273.21978498 1234.67092508 C-273.22531094 1229.96849062 -273.22468675 1225.26607452 -273.22300738 1220.56363787 C-273.22227261 1215.43967696 -273.22730779 1210.31572106 -273.2315824 1205.19176233 C-273.23914228 1195.03832487 -273.24135444 1184.88489267 -273.24191146 1174.73145269 C-273.24282708 1162.56571589 -273.24950045 1150.39998393 -273.25625828 1138.23424921 C-273.27191889 1109.53290675 -273.27800414 1080.83156554 -273.28266531 1052.13021984 C-273.28505124 1037.52054645 -273.28875524 1022.91087351 -273.29270241 1008.30120047 C-273.30536449 961.40738961 -273.31614862 914.51357877 -273.31954287 867.61976622 C-273.31970511 865.37996402 -273.31987066 863.14016182 -273.32003725 860.90035963 C-273.32037104 856.40862707 -273.32070152 851.91689451 -273.32103181 847.42516196 C-273.3214187 842.16677145 -273.32180831 836.90838095 -273.32220287 831.64999044 C-273.32231529 830.14501417 -273.32242671 828.6400379 -273.32253713 827.13506163 C-273.32608585 778.80982855 -273.34116277 730.48461035 -273.36447487 682.15938294 C-273.38122597 647.42083918 -273.39669539 612.68229823 -273.40120983 577.94375038 C-273.40130332 577.22873003 -273.4013968 576.51370968 -273.40149312 575.77702204 C-273.40351256 560.07743374 -273.40466828 544.37784548 -273.40502171 528.67825705 C-273.40515787 523.06004021 -273.40536686 517.44182337 -273.40561496 511.82360653 C-273.40567652 510.42602519 -273.40573484 509.02844386 -273.40578991 507.63086252 C-273.40670812 485.40004894 -273.41665691 463.16925093 -273.4312474 440.93844247 C-273.4463006 417.91042 -273.45043465 394.88241583 -273.44215444 371.85438795 C-273.43770566 358.591044 -273.44152876 345.32776383 -273.45739294 332.06442828 C-273.46717155 323.1920791 -273.46593727 314.31977442 -273.45595672 305.44742561 C-273.45058551 300.40067783 -273.44978688 295.35405218 -273.46246544 290.30731471 C-273.62758859 220.05894299 -255.95526964 155.42675615 -210.89463711 100.31418228 C-210.32446865 99.61607437 -209.75430019 98.91796646 -209.1668539 98.19870377 C-205.83279671 94.1807868 -202.34357917 90.4312072 -198.61558437 86.77682877 C-196.84853643 85.01934612 -195.23561623 83.16912206 -193.64463711 81.25168228 C-190.72504895 77.87144799 -187.61624675 74.95165937 -184.20713711 72.07199478 C-182.7814869 70.85075765 -181.38525026 69.59439128 -180.01963711 68.30636978 C-144.6335877 35.00908023 -97.64050317 14.27916244 -50.51963711 4.50168228 C-49.57596279 4.30276382 -48.63228848 4.10384537 -47.66001797 3.89889908 C-31.92058909 0.80411977 -16.00251273 -0.05003894 0 0 Z " fill="#F0F0F0" transform="translate(719.0821371078491,491.74831771850586)"/>
<path d="M0 0 C1.08571289 0.32774414 1.08571289 0.32774414 2.19335938 0.66210938 C29.13563651 8.91492754 54.0714799 23.49757856 76 41 C76.57105469 41.45391113 77.14210938 41.90782227 77.73046875 42.37548828 C93.25215202 54.85343821 108.03993099 69.17086269 119.76123047 85.30371094 C121.07947301 87.10882508 122.42958869 88.88683545 123.78515625 90.6640625 C130.16520506 99.09448923 135.8001152 107.79930656 141 117 C141.54454834 117.94552734 141.54454834 117.94552734 142.10009766 118.91015625 C168.0739054 164.28125403 177.83095975 217.78103273 167 269 C166.82871582 269.86206055 166.65743164 270.72412109 166.48095703 271.61230469 C160.91996877 299.35848433 150.38465917 325.45240181 137.68286133 350.61523438 C132.8933973 360.13302554 128.50177301 368.96985797 130.8125 379.8125 C133.93816818 384.36704506 137.809371 386.28631348 143 388 C147.90792565 388.80357746 152.679398 389.08551801 157.64404297 389.18701172 C180.63073341 389.80157816 200.61294279 400.80428161 219 414 C220.11252334 414.77712781 221.22584474 415.55311402 222.33984375 416.328125 C238.71681122 427.79086257 253.98258097 440.55217798 268.76953125 453.98828125 C270.84188166 455.85738889 272.94519825 457.6821987 275.0625 459.5 C278.73478981 462.69201046 282.14416845 466.10245055 285.53125 469.59375 C287.56945533 471.58035519 289.64166293 473.42738325 291.80078125 475.27734375 C296.04395289 478.96160565 299.87433761 482.94034243 303.6875 487.0625 C304.72015991 488.17069092 304.72015991 488.17069092 305.77368164 489.30126953 C307.1781621 490.80925166 308.58109233 492.3186792 309.98242188 493.82958984 C311.84978485 495.83840601 313.7270894 497.83720633 315.609375 499.83203125 C322.04313587 506.66708936 328.14532471 513.6566786 334 521 C334.90714347 522.09386886 335.81609602 523.1862392 336.7265625 524.27734375 C357.09944018 548.89584872 374.47166482 573.98561987 372 607 C371.41483756 611.21767081 370.46207983 615.00717155 369 619 C368.64808594 620.0003125 368.29617188 621.000625 367.93359375 622.03125 C365.22311527 629.11606503 361.6810336 635.05036696 357 641 C356.42765625 641.74894531 355.8553125 642.49789062 355.265625 643.26953125 C342.7584731 658.52932555 322.24584708 668.93099011 303 672 C279.75659332 673.50514629 263.61832134 665.42915586 246 651 C245.0615625 650.24460937 244.123125 649.48921875 243.15625 648.7109375 C232.40097734 640.01181991 221.94329308 630.97860758 211.796875 621.578125 C209.22474569 619.20716782 206.61906624 616.88129113 204 614.5625 C199.65584109 610.67231268 195.5295712 606.59877705 191.4609375 602.42407227 C188.7803512 599.69462111 186.02434221 597.13279268 183.1171875 594.64453125 C178.86201509 590.96122012 175.05819286 586.94974341 171.25 582.8125 C165.54163216 576.67195289 159.74348884 570.66671696 153.74609375 564.80859375 C150.99050399 561.99028787 148.41534636 559.0682627 145.83618164 556.09008789 C142.81034044 552.64583493 139.65249679 549.32799661 136.5 546 C132.09136629 541.3459372 127.76989159 536.64082385 123.56738281 531.79931641 C121.62031046 529.56412587 119.62505531 527.37529997 117.625 525.1875 C113.63873877 520.77413935 109.86168389 516.22169967 106.1328125 511.58984375 C104.24080944 509.29241146 102.27535042 507.11628606 100.25 504.9375 C96.55131113 500.75823902 94.14654686 496.12920187 92 491 C91.62875 490.11570312 91.2575 489.23140625 90.875 488.3203125 C89.69258627 483.8334747 89.74798763 479.61772736 89.8125 475 C89.81314453 474.1234375 89.81378906 473.246875 89.81445312 472.34375 C89.8454732 467.76656632 90.21392341 463.51537017 91 459 C92.00793429 445.53252755 92.00793429 445.53252755 88 433 C84.67599218 429.59289199 81.75023897 428.70140575 77.125 428.375 C72.26166389 428.62094008 68.08799418 429.83538916 63.58203125 431.58203125 C62.88593246 431.84775436 62.18983368 432.11347748 61.47264099 432.38725281 C54.66602599 435.03823811 48.10910424 438.15140352 41.54656982 441.34963989 C-16.13895285 469.34416301 -80.1100219 479.88725512 -141.97119141 458.71264648 C-174.08375574 447.22378223 -202.55760285 429.01232759 -227.671875 406.109375 C-229.73153033 404.24324433 -231.82388895 402.42930212 -233.9375 400.625 C-242.85774279 392.81978756 -250.66854601 384.29812586 -258 375 C-258.85907796 373.9531128 -259.71981652 372.90758653 -260.58203125 371.86328125 C-272.04425884 357.83917648 -281.48097961 342.46763116 -289 326 C-289.4942749 324.93458984 -289.4942749 324.93458984 -289.99853516 323.84765625 C-298.74866511 304.7990711 -304.5786633 284.82964351 -307 264 C-307.0928125 263.29480225 -307.185625 262.58960449 -307.28125 261.86303711 C-309.90542849 239.8222808 -309.22692739 215.75106386 -305 194 C-304.80664062 192.99565918 -304.61328125 191.99131836 -304.4140625 190.95654297 C-298.29172723 160.19842186 -288.00887302 128.56540477 -271 102 C-270.55011719 101.29294922 -270.10023438 100.58589844 -269.63671875 99.85742188 C-263.60640267 90.4459919 -257.37362852 81.41732226 -250 73 C-249.319375 72.20980469 -248.63875 71.41960937 -247.9375 70.60546875 C-216.73354094 35.09949327 -176.06668802 11.29378696 -130.33203125 -0.40283203 C-128.75984741 -0.80542433 -127.18954391 -1.21542295 -125.62109375 -1.63232422 C-83.35763447 -12.83417609 -41.82019921 -12.97868251 0 0 Z " fill="#000000" transform="translate(1218,919)"/>
<path d="M0 0 C0.86625 0.66257812 1.7325 1.32515625 2.625 2.0078125 C37.99888506 29.87503009 58.43058 69.90591414 65 114 C65.176521 115.09795898 65.35304199 116.19591797 65.53491211 117.32714844 C66.012164 121.09606049 66.14572849 124.72537552 66.16796875 128.5234375 C66.17224884 129.22226044 66.17652893 129.92108337 66.18093872 130.64108276 C66.19087284 132.88578809 66.19100233 135.13027699 66.1875 137.375 C66.18656342 138.1424353 66.18562683 138.90987061 66.18466187 139.70056152 C66.15578697 150.57743419 66.08691479 161.28733777 64 172 C63.83870605 172.83853516 63.67741211 173.67707031 63.51123047 174.54101562 C58.57063188 199.46035292 49.8521983 223.21183829 35 244 C34.61183105 244.54897949 34.22366211 245.09795898 33.82373047 245.66357422 C18.34549657 267.23758031 -1.5148137 283.88295445 -25 296 C-25.61842773 296.31952637 -26.23685547 296.63905273 -26.87402344 296.96826172 C-69.51325029 318.65056926 -121.5654744 321.76578405 -167.06762695 307.62695312 C-190.01102444 300.12602623 -211.34224325 288.59490254 -229 272 C-229.95302002 271.11054687 -229.95302002 271.11054687 -230.92529297 270.203125 C-263.07751953 239.90598261 -283.65100244 197.17975962 -285.19042969 152.67260742 C-285.27309497 149.00246981 -285.28172105 145.33422706 -285.26074219 141.66333008 C-285.24998689 139.43478323 -285.26073797 137.20703897 -285.2734375 134.97851562 C-285.28291146 125.48162477 -284.51917492 116.39107254 -283 107 C-282.80494873 105.73071655 -282.80494873 105.73071655 -282.60595703 104.43579102 C-278.54301081 79.44894739 -267.82635141 55.43705478 -253 35 C-252.61150879 34.46342773 -252.22301758 33.92685547 -251.82275391 33.37402344 C-225.27109846 -2.88502592 -185.12042563 -26.39923351 -141 -34 C-139.84886719 -34.20753906 -138.69773437 -34.41507813 -137.51171875 -34.62890625 C-90.08368327 -41.91377099 -37.93919476 -29.72674712 0 0 Z " fill="#FEFEFE" transform="translate(1259,1009)"/>
<path d="M0 0 C4.18423892 3.50897269 8.19588166 7.08060535 12 11 C11.67 11.99 11.34 12.98 11 14 C9.72486237 12.92173635 8.45507431 11.83714481 7.1875 10.75 C6.47980469 10.14671875 5.77210938 9.5434375 5.04296875 8.921875 C3.0542608 7.05104458 1.46154264 5.30527231 0 3 C0 2.01 0 1.02 0 0 Z " fill="#525252" transform="translate(521,1919)"/>
</svg>
